<svg width="15" height="12" viewBox="0 0 15 12" fill="none" xmlns="http://www.w3.org/2000/svg">
<path fill-rule="evenodd" clip-rule="evenodd" d="M14.3333 9.33333V2C14.3333 0.89543 13.4379 0 12.3333 0L2 1.01288e-05C0.895429 1.12019e-05 0 0.895442 0 2.00001V9.33333C0 10.4379 0.89543 11.3333 2 11.3333L12.3333 11.3333C13.4379 11.3333 14.3333 10.4379 14.3333 9.33333ZM13 3.50631V9.33333C13 9.70152 12.7015 10 12.3333 10L2 10C1.63181 10 1.33333 9.70152 1.33333 9.33333L1.33333 3.50622L6.04211 6.70819C6.72083 7.16972 7.61263 7.16972 8.29135 6.70819L13 3.50631ZM12.9924 1.89907C12.9438 1.57878 12.6672 1.33333 12.3333 1.33333L2 1.33334C1.66615 1.33334 1.38962 1.57874 1.34094 1.89899L6.79186 5.60562C7.0181 5.75946 7.31537 5.75946 7.54161 5.60562L12.9924 1.89907Z" fill="white"/>
</svg>
