<svg width="10" height="15" viewBox="0 0 10 15" fill="none" xmlns="http://www.w3.org/2000/svg">
<path fill-rule="evenodd" clip-rule="evenodd" d="M2.33333 1.33333C1.78105 1.33333 1.33333 1.78105 1.33333 2.33333V12.4375C1.33333 12.9898 1.78105 13.4375 2.33333 13.4375H7C7.55229 13.4375 8 12.9898 8 12.4375V2.33333C8 1.78105 7.55229 1.33333 7 1.33333H6.94441L6.78203 1.72297C6.67851 1.97138 6.43578 2.13318 6.16667 2.13318H3.16667C2.89755 2.13318 2.65482 1.97138 2.5513 1.72297L2.38892 1.33333H2.33333ZM0 2.33333C0 1.04467 1.04467 0 2.33333 0H7C8.28866 0 9.33333 1.04467 9.33333 2.33333V12.4375C9.33333 13.7262 8.28866 14.7708 7 14.7708H2.33333C1.04467 14.7708 0 13.7262 0 12.4375V2.33333Z" fill="white"/>
</svg>
